<svg width="20" height="20" viewBox="0 0 20 20" fill="none" xmlns="http://www.w3.org/2000/svg">
<mask id="mask0_11271_1137" style="mask-type:alpha" maskUnits="userSpaceOnUse" x="0" y="0" width="20" height="20">
<rect width="20" height="20" fill="#D9D9D9"/>
</mask>
<g mask="url(#mask0_11271_1137)">
<path d="M10.0001 12.4584C9.88896 12.4584 9.78479 12.4409 9.68757 12.4059C9.59035 12.3714 9.50007 12.3125 9.41674 12.2292L5.56257 8.37502C5.40979 8.22224 5.33702 8.03113 5.34424 7.80169C5.35091 7.5728 5.43063 7.38197 5.58341 7.22919C5.73618 7.07641 5.93063 7.00002 6.16674 7.00002C6.40285 7.00002 6.59729 7.07641 6.75007 7.22919L10.0001 10.4792L13.2709 7.20835C13.4237 7.05558 13.6148 6.98252 13.8442 6.98919C14.0731 6.99641 14.264 7.07641 14.4167 7.22919C14.5695 7.38197 14.6459 7.57641 14.6459 7.81252C14.6459 8.04863 14.5695 8.24308 14.4167 8.39585L10.5834 12.2292C10.5001 12.3125 10.4098 12.3714 10.3126 12.4059C10.2154 12.4409 10.1112 12.4584 10.0001 12.4584Z" fill="white"/>
</g>
</svg>
